<svg width="88" height="104" viewBox="0 0 88 104" fill="none" xmlns="http://www.w3.org/2000/svg">
<path d="M82.0799 27.64C81.9999 41.5401 75.8799 48.54 70.0399 52.08C66.1399 54.44 61.6199 55.58 57.0599 55.58C49.9599 55.58 29.5799 56.78 23.6199 70.18C22.6199 72.44 22.1599 74.8801 22.1599 77.34L21.9799 103.2H0.919922V73.18C0.919922 68.08 2.01992 63.0001 4.31992 58.4401C7.87992 51.3601 15.0999 43.5 29.7399 42.46C41.9399 41.5801 48.0999 41.0801 51.1799 40.82C51.2999 40.82 51.4399 40.82 51.5599 40.82C57.8599 40.82 62.9599 36.18 62.9599 29.88C62.9599 23.58 57.8599 18.48 51.5599 18.48H51.4799C50.8199 18.4 50.1599 18.34 49.4999 18.32L21.6599 17.6V32.9201C21.6599 32.9201 8.21992 33.32 0.919922 45.1V0.800049H57.0599C57.0599 0.800049 82.2399 0.960049 82.0799 27.64Z" fill="#148B8A"/>
<path d="M64.4598 66.66C64.4598 66.66 71.8598 83.62 52.4398 86.42H33.8398V103.22H56.4998C64.7598 103.22 72.7998 100.06 78.6198 94.2C81.8398 90.94 84.6998 86.6 86.1998 80.84C86.1998 80.84 89.8198 68.82 82.0798 57.96C82.0798 57.92 76.3198 65.82 64.4598 66.66Z" fill="#FFFFFF"/>
</svg>
