<svg width="117" height="31" viewBox="0 0 117 31" fill="none" xmlns="http://www.w3.org/2000/svg">
<path d="M22.3486 9.33763C22.3266 13.1377 20.6413 15.0514 19.0332 16.0191C17.9593 16.6643 16.7146 16.976 15.459 16.976C13.5039 16.976 7.89195 17.304 6.25078 20.9674C5.97541 21.5852 5.84874 22.2523 5.84874 22.9248L5.79918 29.9945H0V21.7875C0 20.3933 0.302901 19.0045 0.93624 17.7579C1.91654 15.8223 3.90467 13.6735 7.93601 13.3892C11.2955 13.1486 12.9917 13.0119 13.8398 12.9408C13.8729 12.9408 13.9114 12.9408 13.9445 12.9408C15.6793 12.9408 17.0836 11.6723 17.0836 9.95001C17.0836 8.22769 15.6793 6.83343 13.9445 6.83343H13.9224C13.7407 6.81156 13.559 6.79516 13.3772 6.78969L5.71106 6.59285V10.7811C5.71106 10.7811 2.01016 10.8905 0 14.1109V2H15.459C15.459 2 22.3926 2.04374 22.3486 9.33763Z" fill="#148B8A"/>
<path d="M17.4966 20.0051C17.4966 20.0051 19.5343 24.6417 14.1867 25.4071H9.06494V30H15.3047C17.5792 30 19.7931 29.1361 21.3958 27.5341C22.2824 26.6428 23.07 25.4564 23.483 23.8817C23.483 23.8817 24.4799 20.5956 22.3485 17.6266C22.3485 17.6157 20.7624 19.7754 17.4966 20.0051Z" fill="white"/>
<path d="M32.4092 4.43359H35.0752C36.2158 4.43359 37.0791 4.59375 37.665 4.91406C38.251 5.23438 38.5439 5.79688 38.5439 6.60156C38.5439 6.92578 38.4912 7.21875 38.3857 7.48047C38.2842 7.74219 38.1357 7.95703 37.9404 8.125C37.7451 8.29297 37.5068 8.40234 37.2256 8.45312V8.51172C37.5107 8.57031 37.7686 8.67188 37.999 8.81641C38.2295 8.95703 38.4131 9.16406 38.5498 9.4375C38.6904 9.70703 38.7607 10.0664 38.7607 10.5156C38.7607 11.0352 38.6338 11.4805 38.3799 11.8516C38.126 12.2227 37.7627 12.5078 37.29 12.707C36.8213 12.9023 36.2627 13 35.6143 13H32.4092V4.43359ZM34.2256 7.82617H35.2803C35.8076 7.82617 36.1729 7.74414 36.376 7.58008C36.5791 7.41211 36.6807 7.16602 36.6807 6.8418C36.6807 6.51367 36.5596 6.2793 36.3174 6.13867C36.0791 5.99414 35.7002 5.92188 35.1807 5.92188H34.2256V7.82617ZM34.2256 9.26758V11.5H35.4092C35.9561 11.5 36.3369 11.3945 36.5518 11.1836C36.7666 10.9727 36.874 10.6895 36.874 10.334C36.874 10.123 36.8271 9.9375 36.7334 9.77734C36.6396 9.61719 36.4814 9.49219 36.2588 9.40234C36.04 9.3125 35.7373 9.26758 35.3506 9.26758H34.2256ZM45.4053 13H40.4717V4.43359H45.4053V5.92188H42.2881V7.80273H45.1885V9.29102H42.2881V11.5H45.4053V13ZM50.8369 5.82227C50.4893 5.82227 50.1807 5.89062 49.9111 6.02734C49.6455 6.16016 49.4209 6.35352 49.2373 6.60742C49.0576 6.86133 48.9209 7.16797 48.8271 7.52734C48.7334 7.88672 48.6865 8.29102 48.6865 8.74023C48.6865 9.3457 48.7607 9.86328 48.9092 10.293C49.0615 10.7188 49.2959 11.0449 49.6123 11.2715C49.9287 11.4941 50.3369 11.6055 50.8369 11.6055C51.1846 11.6055 51.5322 11.5664 51.8799 11.4883C52.2314 11.4102 52.6123 11.2988 53.0225 11.1543V12.6777C52.6436 12.834 52.2705 12.9453 51.9033 13.0117C51.5361 13.082 51.124 13.1172 50.667 13.1172C49.7842 13.1172 49.0576 12.9355 48.4873 12.5723C47.9209 12.2051 47.501 11.6934 47.2275 11.0371C46.9541 10.377 46.8174 9.60742 46.8174 8.72852C46.8174 8.08008 46.9053 7.48633 47.0811 6.94727C47.2568 6.4082 47.5146 5.94141 47.8545 5.54688C48.1943 5.15234 48.6143 4.84766 49.1143 4.63281C49.6143 4.41797 50.1885 4.31055 50.8369 4.31055C51.2627 4.31055 51.6885 4.36523 52.1143 4.47461C52.5439 4.58008 52.9541 4.72656 53.3447 4.91406L52.7588 6.39062C52.4385 6.23828 52.1162 6.10547 51.792 5.99219C51.4678 5.87891 51.1494 5.82227 50.8369 5.82227ZM58.1553 13H56.3389V5.94531H54.0127V4.43359H60.4814V5.94531H58.1553V13ZM67.0439 13L66.4229 10.9609H63.2998L62.6787 13H60.7217L63.7451 4.39844H65.9658L69.001 13H67.0439ZM65.9893 9.4375L65.3682 7.44531C65.3291 7.3125 65.2764 7.14258 65.21 6.93555C65.1475 6.72461 65.083 6.51172 65.0166 6.29688C64.9541 6.07812 64.9033 5.88867 64.8643 5.72852C64.8252 5.88867 64.7705 6.08789 64.7002 6.32617C64.6338 6.56055 64.5693 6.7832 64.5068 6.99414C64.4443 7.20508 64.3994 7.35547 64.3721 7.44531L63.7568 9.4375H65.9893Z" fill="#148B8A"/>
<path d="M39.5581 27.5789H37.4956L34.3901 23.2372V27.5789H32.5737V19.0125H34.3901V23.161L37.4604 19.0125H39.394L36.271 23.1258L39.5581 27.5789ZM48.4116 23.284C48.4116 23.9442 48.3296 24.5457 48.1655 25.0887C48.0015 25.6278 47.7515 26.0926 47.4155 26.4832C47.0835 26.8739 46.6616 27.1747 46.1499 27.3856C45.6382 27.5926 45.0327 27.6961 44.3335 27.6961C43.6343 27.6961 43.0288 27.5926 42.5171 27.3856C42.0054 27.1747 41.5815 26.8739 41.2456 26.4832C40.9136 26.0926 40.6655 25.6258 40.5015 25.0829C40.3374 24.5399 40.2554 23.9364 40.2554 23.2723C40.2554 22.3856 40.3999 21.6141 40.689 20.9579C40.9819 20.2977 41.4312 19.786 42.0366 19.4227C42.6421 19.0594 43.4116 18.8778 44.3452 18.8778C45.2749 18.8778 46.0386 19.0594 46.6362 19.4227C47.2378 19.786 47.6831 20.2977 47.9722 20.9579C48.2651 21.618 48.4116 22.3934 48.4116 23.284ZM42.1597 23.284C42.1597 23.8817 42.2339 24.3973 42.3823 24.8309C42.5347 25.2606 42.771 25.5926 43.0913 25.827C43.4116 26.0575 43.8257 26.1727 44.3335 26.1727C44.8491 26.1727 45.2671 26.0575 45.5874 25.827C45.9077 25.5926 46.1401 25.2606 46.2847 24.8309C46.4331 24.3973 46.5073 23.8817 46.5073 23.284C46.5073 22.3856 46.3394 21.6786 46.0034 21.1629C45.6675 20.6473 45.1147 20.3895 44.3452 20.3895C43.8335 20.3895 43.4155 20.5067 43.0913 20.7411C42.771 20.9715 42.5347 21.3036 42.3823 21.7372C42.2339 22.1668 42.1597 22.6825 42.1597 23.284ZM57.2065 27.5789H55.396V23.8817H52.0034V27.5789H50.187V19.0125H52.0034V22.37H55.396V19.0125H57.2065V27.5789ZM63.0132 20.4012C62.6655 20.4012 62.3569 20.4696 62.0874 20.6063C61.8218 20.7391 61.5972 20.9325 61.4136 21.1864C61.2339 21.4403 61.0972 21.7469 61.0034 22.1063C60.9097 22.4657 60.8628 22.87 60.8628 23.3192C60.8628 23.9247 60.937 24.4422 61.0854 24.8719C61.2378 25.2977 61.4722 25.6239 61.7886 25.8504C62.105 26.0731 62.5132 26.1844 63.0132 26.1844C63.3608 26.1844 63.7085 26.1454 64.0562 26.0672C64.4077 25.9891 64.7886 25.8778 65.1987 25.7332V27.2567C64.8198 27.4129 64.4468 27.5243 64.0796 27.5907C63.7124 27.661 63.3003 27.6961 62.8433 27.6961C61.9604 27.6961 61.2339 27.5145 60.6636 27.1512C60.0972 26.784 59.6772 26.2723 59.4038 25.6161C59.1304 24.9559 58.9937 24.1864 58.9937 23.3075C58.9937 22.659 59.0815 22.0653 59.2573 21.5262C59.4331 20.9872 59.6909 20.5204 60.0308 20.1258C60.3706 19.7313 60.7905 19.4266 61.2905 19.2118C61.7905 18.9969 62.3647 18.8895 63.0132 18.8895C63.439 18.8895 63.8647 18.9442 64.2905 19.0536C64.7202 19.159 65.1304 19.3055 65.521 19.493L64.9351 20.9696C64.6147 20.8172 64.2925 20.6844 63.9683 20.5711C63.644 20.4579 63.3257 20.4012 63.0132 20.4012ZM72.271 27.5789L71.6499 25.5399H68.5269L67.9058 27.5789H65.9487L68.9722 18.9774H71.1929L74.228 27.5789H72.271ZM71.2163 24.0164L70.5952 22.0243C70.5562 21.8914 70.5034 21.7215 70.437 21.5145C70.3745 21.3036 70.3101 21.0907 70.2437 20.8758C70.1812 20.6571 70.1304 20.4676 70.0913 20.3075C70.0522 20.4676 69.9976 20.6668 69.9272 20.9051C69.8608 21.1395 69.7964 21.3622 69.7339 21.5731C69.6714 21.784 69.6265 21.9344 69.5991 22.0243L68.9839 24.0164H71.2163ZM82.0913 27.5789H80.2808V20.5243H78.1831C78.1362 20.8914 78.0854 21.2918 78.0308 21.7254C77.9761 22.159 77.9194 22.5965 77.8608 23.0379C77.8022 23.4793 77.7397 23.8993 77.6733 24.2977C77.6108 24.6961 77.5483 25.0457 77.4858 25.3465C77.3843 25.8465 77.2456 26.2723 77.0698 26.6239C76.8979 26.9715 76.6616 27.2372 76.3608 27.4207C76.064 27.6043 75.6753 27.6961 75.1948 27.6961C75.0347 27.6961 74.8804 27.6844 74.7319 27.661C74.5874 27.6375 74.4526 27.6063 74.3276 27.5672V26.0789C74.4292 26.1141 74.5308 26.1434 74.6323 26.1668C74.7339 26.1864 74.8452 26.1961 74.9663 26.1961C75.1226 26.1961 75.2515 26.1454 75.353 26.0438C75.4585 25.9383 75.5522 25.7606 75.6343 25.5106C75.7163 25.2567 75.7983 24.9071 75.8804 24.4618C75.9155 24.2664 75.9624 23.9911 76.021 23.6356C76.0796 23.2762 76.146 22.8563 76.2202 22.3758C76.2944 21.8914 76.3706 21.3641 76.4487 20.7938C76.5308 20.2235 76.6089 19.6297 76.6831 19.0125H82.0913V27.5789ZM87.5581 27.5789H85.7417V20.5243H83.4155V19.0125H89.8843V20.5243H87.5581V27.5789ZM91.2026 19.0125H92.8374V23.1493C92.8374 23.3524 92.8335 23.577 92.8257 23.8231C92.8218 24.0692 92.814 24.3114 92.8022 24.5497C92.7944 24.784 92.7866 24.9891 92.7788 25.1649C92.771 25.3407 92.7632 25.4579 92.7554 25.5164H92.7905L96.7456 19.0125H98.9194V27.5789H97.3022V23.4657C97.3022 23.2469 97.3062 23.0086 97.314 22.7508C97.3218 22.493 97.3315 22.243 97.3433 22.0008C97.3589 21.7586 97.3726 21.5497 97.3843 21.3739C97.396 21.1942 97.4038 21.075 97.4077 21.0164H97.3608L93.3882 27.5789H91.2026V19.0125ZM108.101 27.5789H106.291V23.8817H102.898V27.5789H101.082V19.0125H102.898V22.37H106.291V19.0125H108.101V27.5789ZM115.683 19.0125V20.5125H112.085V27.5789H110.269V19.0125H115.683Z" fill="white"/>
</svg>
